<svg width="496" height="512" xmlns="http://www.w3.org/2000/svg" xmlns:xlink="http://www.w3.org/1999/xlink" overflow="hidden"><defs><clipPath id="clip0"><rect x="342" y="104" width="496" height="512"/></clipPath></defs><g clip-path="url(#clip0)" transform="translate(-342 -104)"><path d="M507.9 501.4C507.9 503.4 505.6 505 502.7 505 499.4 505.3 497.1 503.7 497.1 501.4 497.1 499.4 499.4 497.8 502.3 497.8 505.3 497.5 507.9 499.1 507.9 501.4ZM476.8 496.9C476.1 498.9 478.1 501.2 481.1 501.8 483.7 502.8 486.7 501.8 487.3 499.8 487.9 497.8 486 495.5 483 494.6 480.4 493.9 477.5 494.9 476.8 496.9ZM521 495.2C518.1 495.9 516.1 497.8 516.4 500.1 516.7 502.1 519.3 503.4 522.3 502.7 525.2 502 527.2 500.1 526.9 498.1 526.6 496.2 523.9 494.9 521 495.2ZM586.8 112C448.1 112 342 217.3 342 356 342 466.9 411.8 561.8 511.5 595.2 524.3 597.5 528.8 589.6 528.8 583.1 528.8 576.9 528.5 542.7 528.5 521.7 528.5 521.7 458.5 536.7 443.8 491.9 443.8 491.9 432.4 462.8 416 455.3 416 455.3 393.1 439.6 417.6 439.9 417.6 439.9 442.5 441.9 456.2 465.7 478.1 504.3 514.8 493.2 529.1 486.6 531.4 470.6 537.9 459.5 545.1 452.9 489.2 446.7 432.8 438.6 432.8 342.4 432.8 314.9 440.4 301.1 456.4 283.5 453.8 277 445.3 250.2 459 215.6 479.9 209.1 528 242.6 528 242.6 548 237 569.5 234.1 590.8 234.1 612.1 234.1 633.6 237 653.6 242.6 653.6 242.6 701.7 209 722.6 215.6 736.3 250.3 727.8 277 725.2 283.5 741.2 301.2 751 315 751 342.4 751 438.9 692.1 446.6 636.2 452.9 645.4 460.8 653.2 475.8 653.2 499.3 653.2 533 652.9 574.7 652.9 582.9 652.9 589.4 657.5 597.3 670.2 595 770.2 561.8 838 466.9 838 356 838 217.3 725.5 112 586.8 112ZM439.2 456.9C437.9 457.9 438.2 460.2 439.9 462.1 441.5 463.7 443.8 464.4 445.1 463.1 446.4 462.1 446.1 459.8 444.4 457.9 442.8 456.3 440.5 455.6 439.2 456.9ZM428.4 448.8C427.7 450.1 428.7 451.7 430.7 452.7 432.3 453.7 434.3 453.4 435 452 435.7 450.7 434.7 449.1 432.7 448.1 430.7 447.5 429.1 447.8 428.4 448.8ZM460.8 484.4C459.2 485.7 459.8 488.7 462.1 490.6 464.4 492.9 467.3 493.2 468.6 491.6 469.9 490.3 469.3 487.3 467.3 485.4 465.1 483.1 462.1 482.8 460.8 484.4ZM449.4 469.7C447.8 470.7 447.8 473.3 449.4 475.6 451 477.9 453.7 478.9 455 477.9 456.6 476.6 456.6 474 455 471.7 453.6 469.4 451 468.4 449.4 469.7Z" fill="#595959"/></g></svg>